<?xml version="1.0" encoding="UTF-8" standalone="no"?>
<!DOCTYPE svg PUBLIC "-//W3C//DTD SVG 1.1//EN"
 "http://www.w3.org/Graphics/SVG/1.1/DTD/svg11.dtd">
<!-- Generated by graphviz version 2.36.0 (20140111.2315)
 -->
<!-- Title: controllers_diagram Pages: 1 -->
<svg width="709pt" height="567pt"
 viewBox="0.00 0.00 709.00 567.00" xmlns="http://www.w3.org/2000/svg" xmlns:xlink="http://www.w3.org/1999/xlink">
<g id="graph0" class="graph" transform="scale(1 1) rotate(0) translate(4 563)">
<title>controllers_diagram</title>
<polygon fill="white" stroke="none" points="-4,4 -4,-563 705,-563 705,4 -4,4"/>
<!-- _diagram_info -->
<g id="node1" class="node"><title>_diagram_info</title>
<text text-anchor="start" x="360" y="-63.6" font-family="Times,serif" font-size="13.00">Controllers diagram</text>
<text text-anchor="start" x="360" y="-49.6" font-family="Times,serif" font-size="13.00">Date: Apr 20 2015 &#45; 11:54</text>
<text text-anchor="start" x="360" y="-35.6" font-family="Times,serif" font-size="13.00">Migration version: 20150410040522</text>
<text text-anchor="start" x="360" y="-21.6" font-family="Times,serif" font-size="13.00">Generated by RailRoady 1.3.0</text>
<text text-anchor="start" x="360" y="-7.6" font-family="Times,serif" font-size="13.00">http://railroady.prestonlee.com</text>
</g>
<!-- AppointmentsController -->
<g id="node2" class="node"><title>AppointmentsController</title>
<path fill="none" stroke="black" d="M188,-80.5C188,-80.5 313,-80.5 313,-80.5 319,-80.5 325,-86.5 325,-92.5 325,-92.5 325,-296.5 325,-296.5 325,-302.5 319,-308.5 313,-308.5 313,-308.5 188,-308.5 188,-308.5 182,-308.5 176,-302.5 176,-296.5 176,-296.5 176,-92.5 176,-92.5 176,-86.5 182,-80.5 188,-80.5"/>
<text text-anchor="middle" x="250.5" y="-293.3" font-family="Times,serif" font-size="14.00">AppointmentsController</text>
<polyline fill="none" stroke="black" points="176,-285.5 325,-285.5 "/>
<text text-anchor="start" x="184" y="-270.3" font-family="Times,serif" font-size="14.00">appointment_params</text>
<text text-anchor="start" x="184" y="-255.3" font-family="Times,serif" font-size="14.00">confirmar_cita</text>
<text text-anchor="start" x="184" y="-240.3" font-family="Times,serif" font-size="14.00">create</text>
<text text-anchor="start" x="184" y="-225.3" font-family="Times,serif" font-size="14.00">destroy</text>
<text text-anchor="start" x="184" y="-210.3" font-family="Times,serif" font-size="14.00">edit</text>
<text text-anchor="start" x="184" y="-195.3" font-family="Times,serif" font-size="14.00">generar_reporte</text>
<text text-anchor="start" x="184" y="-180.3" font-family="Times,serif" font-size="14.00">index</text>
<text text-anchor="start" x="184" y="-165.3" font-family="Times,serif" font-size="14.00">new</text>
<text text-anchor="start" x="184" y="-150.3" font-family="Times,serif" font-size="14.00">show</text>
<text text-anchor="start" x="184" y="-135.3" font-family="Times,serif" font-size="14.00">update</text>
<polyline fill="none" stroke="black" points="176,-127.5 325,-127.5 "/>
<polyline fill="none" stroke="black" points="176,-103.5 325,-103.5 "/>
<text text-anchor="start" x="184" y="-88.3" font-family="Times,serif" font-size="14.00">_layout</text>
</g>
<!-- ConsejeriaController -->
<g id="node3" class="node"><title>ConsejeriaController</title>
<path fill="none" stroke="black" d="M28,-208.5C28,-208.5 134,-208.5 134,-208.5 140,-208.5 146,-214.5 146,-220.5 146,-220.5 146,-289.5 146,-289.5 146,-295.5 140,-301.5 134,-301.5 134,-301.5 28,-301.5 28,-301.5 22,-301.5 16,-295.5 16,-289.5 16,-289.5 16,-220.5 16,-220.5 16,-214.5 22,-208.5 28,-208.5"/>
<text text-anchor="middle" x="81" y="-286.3" font-family="Times,serif" font-size="14.00">ConsejeriaController</text>
<polyline fill="none" stroke="black" points="16,-278.5 146,-278.5 "/>
<text text-anchor="start" x="24" y="-263.3" font-family="Times,serif" font-size="14.00">index</text>
<polyline fill="none" stroke="black" points="16,-255.5 146,-255.5 "/>
<polyline fill="none" stroke="black" points="16,-231.5 146,-231.5 "/>
<text text-anchor="start" x="24" y="-216.3" font-family="Times,serif" font-size="14.00">_layout</text>
</g>
<!-- ApplicationController -->
<g id="node4" class="node"><title>ApplicationController</title>
<path fill="none" stroke="black" d="M12,-80.5C12,-80.5 124,-80.5 124,-80.5 130,-80.5 136,-86.5 136,-92.5 136,-92.5 136,-162.5 136,-162.5 136,-168.5 130,-174.5 124,-174.5 124,-174.5 12,-174.5 12,-174.5 6,-174.5 0,-168.5 0,-162.5 0,-162.5 0,-92.5 0,-92.5 0,-86.5 6,-80.5 12,-80.5"/>
<text text-anchor="middle" x="68" y="-159.3" font-family="Times,serif" font-size="14.00">ApplicationController</text>
<polyline fill="none" stroke="black" points="0,-151.5 136,-151.5 "/>
<polyline fill="none" stroke="black" points="0,-127.5 136,-127.5 "/>
<polyline fill="none" stroke="black" points="0,-103.5 136,-103.5 "/>
<text text-anchor="start" x="8" y="-88.3" font-family="Times,serif" font-size="14.00">_layout</text>
</g>
<!-- SchedulesController -->
<g id="node5" class="node"><title>SchedulesController</title>
<path fill="none" stroke="black" d="M364,-112.5C364,-112.5 467,-112.5 467,-112.5 473,-112.5 479,-118.5 479,-124.5 479,-124.5 479,-283.5 479,-283.5 479,-289.5 473,-295.5 467,-295.5 467,-295.5 364,-295.5 364,-295.5 358,-295.5 352,-289.5 352,-283.5 352,-283.5 352,-124.5 352,-124.5 352,-118.5 358,-112.5 364,-112.5"/>
<text text-anchor="middle" x="415.5" y="-280.3" font-family="Times,serif" font-size="14.00">SchedulesController</text>
<polyline fill="none" stroke="black" points="352,-272.5 479,-272.5 "/>
<text text-anchor="start" x="360" y="-257.3" font-family="Times,serif" font-size="14.00">create</text>
<text text-anchor="start" x="360" y="-242.3" font-family="Times,serif" font-size="14.00">destroy</text>
<text text-anchor="start" x="360" y="-227.3" font-family="Times,serif" font-size="14.00">index</text>
<text text-anchor="start" x="360" y="-212.3" font-family="Times,serif" font-size="14.00">new</text>
<text text-anchor="start" x="360" y="-197.3" font-family="Times,serif" font-size="14.00">schedule_params</text>
<text text-anchor="start" x="360" y="-182.3" font-family="Times,serif" font-size="14.00">show</text>
<text text-anchor="start" x="360" y="-167.3" font-family="Times,serif" font-size="14.00">update</text>
<polyline fill="none" stroke="black" points="352,-159.5 479,-159.5 "/>
<polyline fill="none" stroke="black" points="352,-135.5 479,-135.5 "/>
<text text-anchor="start" x="360" y="-120.3" font-family="Times,serif" font-size="14.00">_layout</text>
</g>
<!-- UsersController -->
<g id="node6" class="node"><title>UsersController</title>
<path fill="none" stroke="black" d="M396,-336.5C396,-336.5 475,-336.5 475,-336.5 481,-336.5 487,-342.5 487,-348.5 487,-348.5 487,-522.5 487,-522.5 487,-528.5 481,-534.5 475,-534.5 475,-534.5 396,-534.5 396,-534.5 390,-534.5 384,-528.5 384,-522.5 384,-522.5 384,-348.5 384,-348.5 384,-342.5 390,-336.5 396,-336.5"/>
<text text-anchor="middle" x="435.5" y="-519.3" font-family="Times,serif" font-size="14.00">UsersController</text>
<polyline fill="none" stroke="black" points="384,-511.5 487,-511.5 "/>
<text text-anchor="start" x="392" y="-496.3" font-family="Times,serif" font-size="14.00">create</text>
<text text-anchor="start" x="392" y="-481.3" font-family="Times,serif" font-size="14.00">destroy</text>
<text text-anchor="start" x="392" y="-466.3" font-family="Times,serif" font-size="14.00">edit</text>
<text text-anchor="start" x="392" y="-451.3" font-family="Times,serif" font-size="14.00">index</text>
<text text-anchor="start" x="392" y="-436.3" font-family="Times,serif" font-size="14.00">new</text>
<text text-anchor="start" x="392" y="-421.3" font-family="Times,serif" font-size="14.00">show</text>
<text text-anchor="start" x="392" y="-406.3" font-family="Times,serif" font-size="14.00">update</text>
<text text-anchor="start" x="392" y="-391.3" font-family="Times,serif" font-size="14.00">user_params</text>
<polyline fill="none" stroke="black" points="384,-383.5 487,-383.5 "/>
<polyline fill="none" stroke="black" points="384,-359.5 487,-359.5 "/>
<text text-anchor="start" x="392" y="-344.3" font-family="Times,serif" font-size="14.00">_layout</text>
</g>
<!-- Users::PasswordsController -->
<g id="node7" class="node"><title>Users::PasswordsController</title>
<path fill="none" stroke="black" d="M524,-368.5C524,-368.5 667,-368.5 667,-368.5 673,-368.5 679,-374.5 679,-380.5 679,-380.5 679,-450.5 679,-450.5 679,-456.5 673,-462.5 667,-462.5 667,-462.5 524,-462.5 524,-462.5 518,-462.5 512,-456.5 512,-450.5 512,-450.5 512,-380.5 512,-380.5 512,-374.5 518,-368.5 524,-368.5"/>
<text text-anchor="middle" x="595.5" y="-447.3" font-family="Times,serif" font-size="14.00">Users::PasswordsController</text>
<polyline fill="none" stroke="black" points="512,-439.5 679,-439.5 "/>
<polyline fill="none" stroke="black" points="512,-415.5 679,-415.5 "/>
<polyline fill="none" stroke="black" points="512,-391.5 679,-391.5 "/>
<text text-anchor="start" x="520" y="-376.3" font-family="Times,serif" font-size="14.00">_layout</text>
</g>
<!-- Users::OmniauthCallbacksController -->
<g id="node8" class="node"><title>Users::OmniauthCallbacksController</title>
<path fill="none" stroke="black" d="M140,-336.5C140,-336.5 334,-336.5 334,-336.5 340,-336.5 346,-342.5 346,-348.5 346,-348.5 346,-418.5 346,-418.5 346,-424.5 340,-430.5 334,-430.5 334,-430.5 140,-430.5 140,-430.5 134,-430.5 128,-424.5 128,-418.5 128,-418.5 128,-348.5 128,-348.5 128,-342.5 134,-336.5 140,-336.5"/>
<text text-anchor="middle" x="237" y="-415.3" font-family="Times,serif" font-size="14.00">Users::OmniauthCallbacksController</text>
<polyline fill="none" stroke="black" points="128,-407.5 346,-407.5 "/>
<polyline fill="none" stroke="black" points="128,-383.5 346,-383.5 "/>
<polyline fill="none" stroke="black" points="128,-359.5 346,-359.5 "/>
<text text-anchor="start" x="136" y="-344.3" font-family="Times,serif" font-size="14.00">_layout</text>
</g>
<!-- Users::RegistrationsController -->
<g id="node9" class="node"><title>Users::RegistrationsController</title>
<path fill="none" stroke="black" d="M524,-112.5C524,-112.5 682,-112.5 682,-112.5 688,-112.5 694,-118.5 694,-124.5 694,-124.5 694,-194.5 694,-194.5 694,-200.5 688,-206.5 682,-206.5 682,-206.5 524,-206.5 524,-206.5 518,-206.5 512,-200.5 512,-194.5 512,-194.5 512,-124.5 512,-124.5 512,-118.5 518,-112.5 524,-112.5"/>
<text text-anchor="middle" x="603" y="-191.3" font-family="Times,serif" font-size="14.00">Users::RegistrationsController</text>
<polyline fill="none" stroke="black" points="512,-183.5 694,-183.5 "/>
<polyline fill="none" stroke="black" points="512,-159.5 694,-159.5 "/>
<polyline fill="none" stroke="black" points="512,-135.5 694,-135.5 "/>
<text text-anchor="start" x="520" y="-120.3" font-family="Times,serif" font-size="14.00">_layout</text>
</g>
<!-- Users::SessionsController -->
<g id="node10" class="node"><title>Users::SessionsController</title>
<path fill="none" stroke="black" d="M204,-464.5C204,-464.5 337,-464.5 337,-464.5 343,-464.5 349,-470.5 349,-476.5 349,-476.5 349,-546.5 349,-546.5 349,-552.5 343,-558.5 337,-558.5 337,-558.5 204,-558.5 204,-558.5 198,-558.5 192,-552.5 192,-546.5 192,-546.5 192,-476.5 192,-476.5 192,-470.5 198,-464.5 204,-464.5"/>
<text text-anchor="middle" x="270.5" y="-543.3" font-family="Times,serif" font-size="14.00">Users::SessionsController</text>
<polyline fill="none" stroke="black" points="192,-535.5 349,-535.5 "/>
<polyline fill="none" stroke="black" points="192,-511.5 349,-511.5 "/>
<polyline fill="none" stroke="black" points="192,-487.5 349,-487.5 "/>
<text text-anchor="start" x="200" y="-472.3" font-family="Times,serif" font-size="14.00">_layout</text>
</g>
<!-- Users::UnlocksController -->
<g id="node11" class="node"><title>Users::UnlocksController</title>
<path fill="none" stroke="black" d="M12,-464.5C12,-464.5 143,-464.5 143,-464.5 149,-464.5 155,-470.5 155,-476.5 155,-476.5 155,-546.5 155,-546.5 155,-552.5 149,-558.5 143,-558.5 143,-558.5 12,-558.5 12,-558.5 6,-558.5 0,-552.5 0,-546.5 0,-546.5 0,-476.5 0,-476.5 0,-470.5 6,-464.5 12,-464.5"/>
<text text-anchor="middle" x="77.5" y="-543.3" font-family="Times,serif" font-size="14.00">Users::UnlocksController</text>
<polyline fill="none" stroke="black" points="0,-535.5 155,-535.5 "/>
<polyline fill="none" stroke="black" points="0,-511.5 155,-511.5 "/>
<polyline fill="none" stroke="black" points="0,-487.5 155,-487.5 "/>
<text text-anchor="start" x="8" y="-472.3" font-family="Times,serif" font-size="14.00">_layout</text>
</g>
<!-- Users::ConfirmationsController -->
<g id="node12" class="node"><title>Users::ConfirmationsController</title>
<path fill="none" stroke="black" d="M524,-240.5C524,-240.5 689,-240.5 689,-240.5 695,-240.5 701,-246.5 701,-252.5 701,-252.5 701,-322.5 701,-322.5 701,-328.5 695,-334.5 689,-334.5 689,-334.5 524,-334.5 524,-334.5 518,-334.5 512,-328.5 512,-322.5 512,-322.5 512,-252.5 512,-252.5 512,-246.5 518,-240.5 524,-240.5"/>
<text text-anchor="middle" x="606.5" y="-319.3" font-family="Times,serif" font-size="14.00">Users::ConfirmationsController</text>
<polyline fill="none" stroke="black" points="512,-311.5 701,-311.5 "/>
<polyline fill="none" stroke="black" points="512,-287.5 701,-287.5 "/>
<polyline fill="none" stroke="black" points="512,-263.5 701,-263.5 "/>
<text text-anchor="start" x="520" y="-248.3" font-family="Times,serif" font-size="14.00">_layout</text>
</g>
</g>
</svg>
