<?xml version="1.0" encoding="UTF-8" standalone="no"?>
<!DOCTYPE svg PUBLIC "-//W3C//DTD SVG 1.1//EN"
 "http://www.w3.org/Graphics/SVG/1.1/DTD/svg11.dtd">
<!-- Generated by graphviz version 2.36.0 (20140111.2315)
 -->
<!-- Title: models_diagram Pages: 1 -->
<svg width="512pt" height="596pt"
 viewBox="0.00 0.00 512.00 596.00" xmlns="http://www.w3.org/2000/svg" xmlns:xlink="http://www.w3.org/1999/xlink">
<g id="graph0" class="graph" transform="scale(1 1) rotate(0) translate(4 592)">
<title>models_diagram</title>
<polygon fill="white" stroke="none" points="-4,4 -4,-592 508,-592 508,4 -4,4"/>
<!-- _diagram_info -->
<g id="node1" class="node"><title>_diagram_info</title>
<text text-anchor="start" x="7" y="-491.6" font-family="Times,serif" font-size="13.00">Models diagram</text>
<text text-anchor="start" x="7" y="-477.6" font-family="Times,serif" font-size="13.00">Date: Apr 20 2015 &#45; 11:53</text>
<text text-anchor="start" x="7" y="-463.6" font-family="Times,serif" font-size="13.00">Migration version: 20150410040522</text>
<text text-anchor="start" x="7" y="-449.6" font-family="Times,serif" font-size="13.00">Generated by RailRoady 1.3.0</text>
<text text-anchor="start" x="7" y="-435.6" font-family="Times,serif" font-size="13.00">http://railroady.prestonlee.com</text>
</g>
<!-- Appointment -->
<g id="node2" class="node"><title>Appointment</title>
<path fill="none" stroke="black" d="M183.5,-158.5C183.5,-158.5 290.5,-158.5 290.5,-158.5 296.5,-158.5 302.5,-164.5 302.5,-170.5 302.5,-170.5 302.5,-297.5 302.5,-297.5 302.5,-303.5 296.5,-309.5 290.5,-309.5 290.5,-309.5 183.5,-309.5 183.5,-309.5 177.5,-309.5 171.5,-303.5 171.5,-297.5 171.5,-297.5 171.5,-170.5 171.5,-170.5 171.5,-164.5 177.5,-158.5 183.5,-158.5"/>
<text text-anchor="middle" x="237" y="-294.3" font-family="Times,serif" font-size="14.00">Appointment</text>
<polyline fill="none" stroke="black" points="171.5,-286.5 302.5,-286.5 "/>
<text text-anchor="start" x="179.5" y="-271.3" font-family="Times,serif" font-size="14.00">id :integer</text>
<text text-anchor="start" x="179.5" y="-256.3" font-family="Times,serif" font-size="14.00">consejero_id :integer</text>
<text text-anchor="start" x="179.5" y="-241.3" font-family="Times,serif" font-size="14.00">alumno_id :integer</text>
<text text-anchor="start" x="179.5" y="-226.3" font-family="Times,serif" font-size="14.00">fecha :datetime</text>
<text text-anchor="start" x="179.5" y="-211.3" font-family="Times,serif" font-size="14.00">estado :string</text>
<text text-anchor="start" x="179.5" y="-196.3" font-family="Times,serif" font-size="14.00">reporte :text</text>
<text text-anchor="start" x="179.5" y="-181.3" font-family="Times,serif" font-size="14.00">created_at :datetime</text>
<text text-anchor="start" x="179.5" y="-166.3" font-family="Times,serif" font-size="14.00">updated_at :datetime</text>
</g>
<!-- Role -->
<g id="node4" class="node"><title>Role</title>
<path fill="none" stroke="black" d="M230.5,-0.5C230.5,-0.5 337.5,-0.5 337.5,-0.5 343.5,-0.5 349.5,-6.5 349.5,-12.5 349.5,-12.5 349.5,-109.5 349.5,-109.5 349.5,-115.5 343.5,-121.5 337.5,-121.5 337.5,-121.5 230.5,-121.5 230.5,-121.5 224.5,-121.5 218.5,-115.5 218.5,-109.5 218.5,-109.5 218.5,-12.5 218.5,-12.5 218.5,-6.5 224.5,-0.5 230.5,-0.5"/>
<text text-anchor="middle" x="284" y="-106.3" font-family="Times,serif" font-size="14.00">Role</text>
<polyline fill="none" stroke="black" points="218.5,-98.5 349.5,-98.5 "/>
<text text-anchor="start" x="226.5" y="-83.3" font-family="Times,serif" font-size="14.00">id :integer</text>
<text text-anchor="start" x="226.5" y="-68.3" font-family="Times,serif" font-size="14.00">name :string</text>
<text text-anchor="start" x="226.5" y="-53.3" font-family="Times,serif" font-size="14.00">resource_id :integer</text>
<text text-anchor="start" x="226.5" y="-38.3" font-family="Times,serif" font-size="14.00">resource_type :string</text>
<text text-anchor="start" x="226.5" y="-23.3" font-family="Times,serif" font-size="14.00">created_at :datetime</text>
<text text-anchor="start" x="226.5" y="-8.3" font-family="Times,serif" font-size="14.00">updated_at :datetime</text>
</g>
<!-- Appointment&#45;&gt;Role -->
<g id="edge1" class="edge"><title>Appointment&#45;&gt;Role</title>
<path fill="none" stroke="#61865d" d="M259.631,-150.66C261.398,-144.232 263.172,-137.779 264.912,-131.449"/>
<ellipse fill="none" stroke="#61865d" cx="258.538" cy="-154.637" rx="4.00001" ry="4.00001"/>
<polygon fill="#61865d" stroke="#61865d" points="264.962,-131.264 271.952,-122.814 266.288,-126.443 267.613,-121.622 267.613,-121.622 267.613,-121.622 266.288,-126.443 263.274,-120.429 264.962,-131.264 264.962,-131.264"/>
</g>
<!-- User -->
<g id="node3" class="node"><title>User</title>
<path fill="none" stroke="black" d="M243,-346.5C243,-346.5 419,-346.5 419,-346.5 425,-346.5 431,-352.5 431,-358.5 431,-358.5 431,-575.5 431,-575.5 431,-581.5 425,-587.5 419,-587.5 419,-587.5 243,-587.5 243,-587.5 237,-587.5 231,-581.5 231,-575.5 231,-575.5 231,-358.5 231,-358.5 231,-352.5 237,-346.5 243,-346.5"/>
<text text-anchor="middle" x="331" y="-572.3" font-family="Times,serif" font-size="14.00">User</text>
<polyline fill="none" stroke="black" points="231,-564.5 431,-564.5 "/>
<text text-anchor="start" x="239" y="-549.3" font-family="Times,serif" font-size="14.00">id :integer</text>
<text text-anchor="start" x="239" y="-534.3" font-family="Times,serif" font-size="14.00">email :string</text>
<text text-anchor="start" x="239" y="-519.3" font-family="Times,serif" font-size="14.00">encrypted_password :string</text>
<text text-anchor="start" x="239" y="-504.3" font-family="Times,serif" font-size="14.00">reset_password_token :string</text>
<text text-anchor="start" x="239" y="-489.3" font-family="Times,serif" font-size="14.00">reset_password_sent_at :datetime</text>
<text text-anchor="start" x="239" y="-474.3" font-family="Times,serif" font-size="14.00">remember_created_at :datetime</text>
<text text-anchor="start" x="239" y="-459.3" font-family="Times,serif" font-size="14.00">sign_in_count :integer</text>
<text text-anchor="start" x="239" y="-444.3" font-family="Times,serif" font-size="14.00">current_sign_in_at :datetime</text>
<text text-anchor="start" x="239" y="-429.3" font-family="Times,serif" font-size="14.00">last_sign_in_at :datetime</text>
<text text-anchor="start" x="239" y="-414.3" font-family="Times,serif" font-size="14.00">current_sign_in_ip :string</text>
<text text-anchor="start" x="239" y="-399.3" font-family="Times,serif" font-size="14.00">last_sign_in_ip :string</text>
<text text-anchor="start" x="239" y="-384.3" font-family="Times,serif" font-size="14.00">created_at :datetime</text>
<text text-anchor="start" x="239" y="-369.3" font-family="Times,serif" font-size="14.00">updated_at :datetime</text>
<text text-anchor="start" x="239" y="-354.3" font-family="Times,serif" font-size="14.00">role :string</text>
</g>
<!-- User&#45;&gt;Appointment -->
<g id="edge3" class="edge"><title>User&#45;&gt;Appointment</title>
<path fill="none" stroke="#3d8bf8" d="M279.241,-338.805C276.518,-332.113 273.816,-325.474 271.173,-318.978"/>
<ellipse fill="none" stroke="#3d8bf8" cx="280.84" cy="-342.735" rx="4.00001" ry="4.00001"/>
<polygon fill="#3d8bf8" stroke="#3d8bf8" points="271.116,-318.838 271.515,-307.879 269.231,-314.207 267.347,-309.575 267.347,-309.575 267.347,-309.575 269.231,-314.207 263.179,-311.272 271.116,-318.838 271.116,-318.838"/>
</g>
<!-- User&#45;&gt;Role -->
<g id="edge2" class="edge"><title>User&#45;&gt;Role</title>
<path fill="none" stroke="#fc3b6d" d="M328.601,-336.284C326.026,-281.028 320.935,-216.051 311,-158 309.525,-149.383 307.582,-140.43 305.412,-131.609"/>
<polygon fill="#fc3b6d" stroke="#fc3b6d" points="328.61,-336.494 324.557,-346.683 328.831,-341.489 329.053,-346.484 329.053,-346.484 329.053,-346.484 328.831,-341.489 333.548,-346.285 328.61,-336.494 328.61,-336.494"/>
<polygon fill="#fc3b6d" stroke="#fc3b6d" points="305.363,-131.418 307.237,-120.613 304.121,-126.574 302.879,-121.731 302.879,-121.731 302.879,-121.731 304.121,-126.574 298.52,-122.849 305.363,-131.418 305.363,-131.418"/>
</g>
<!-- Schedule -->
<g id="node5" class="node"><title>Schedule</title>
<path fill="none" stroke="black" d="M371.5,-166C371.5,-166 478.5,-166 478.5,-166 484.5,-166 490.5,-172 490.5,-178 490.5,-178 490.5,-290 490.5,-290 490.5,-296 484.5,-302 478.5,-302 478.5,-302 371.5,-302 371.5,-302 365.5,-302 359.5,-296 359.5,-290 359.5,-290 359.5,-178 359.5,-178 359.5,-172 365.5,-166 371.5,-166"/>
<text text-anchor="middle" x="425" y="-286.8" font-family="Times,serif" font-size="14.00">Schedule</text>
<polyline fill="none" stroke="black" points="359.5,-279 490.5,-279 "/>
<text text-anchor="start" x="367.5" y="-263.8" font-family="Times,serif" font-size="14.00">id :integer</text>
<text text-anchor="start" x="367.5" y="-248.8" font-family="Times,serif" font-size="14.00">user_id :integer</text>
<text text-anchor="start" x="367.5" y="-233.8" font-family="Times,serif" font-size="14.00">dia_semana :string</text>
<text text-anchor="start" x="367.5" y="-218.8" font-family="Times,serif" font-size="14.00">hora_inicio :time</text>
<text text-anchor="start" x="367.5" y="-203.8" font-family="Times,serif" font-size="14.00">hora_fin :time</text>
<text text-anchor="start" x="367.5" y="-188.8" font-family="Times,serif" font-size="14.00">created_at :datetime</text>
<text text-anchor="start" x="367.5" y="-173.8" font-family="Times,serif" font-size="14.00">updated_at :datetime</text>
</g>
<!-- User&#45;&gt;Schedule -->
<g id="edge4" class="edge"><title>User&#45;&gt;Schedule</title>
<path fill="none" stroke="#186b00" d="M382.69,-338.975C386.47,-329.685 390.21,-320.495 393.809,-311.65"/>
<ellipse fill="none" stroke="#186b00" cx="381.16" cy="-342.735" rx="4.00002" ry="4.00002"/>
<polygon fill="#186b00" stroke="#186b00" points="393.886,-311.46 401.824,-303.894 395.771,-306.829 397.655,-302.198 397.655,-302.198 397.655,-302.198 395.771,-306.829 393.487,-300.502 393.886,-311.46 393.886,-311.46"/>
</g>
<!-- Ability -->
<g id="node6" class="node"><title>Ability</title>
<polygon fill="none" stroke="black" points="449.5,-444 449.5,-490 504.5,-490 504.5,-444 449.5,-444"/>
<text text-anchor="middle" x="477" y="-474.8" font-family="Times,serif" font-size="14.00">Ability</text>
<polyline fill="none" stroke="black" points="449.5,-467 504.5,-467 "/>
<text text-anchor="middle" x="477" y="-451.8" font-family="Times,serif" font-size="14.00"> </text>
</g>
</g>
</svg>
