<?xml version="1.0" encoding="UTF-8" standalone="no"?>
<!DOCTYPE svg PUBLIC "-//W3C//DTD SVG 1.1//EN"
 "http://www.w3.org/Graphics/SVG/1.1/DTD/svg11.dtd">
<!-- Generated by graphviz version 2.36.0 (20140111.2315)
 -->
<!-- Title: models_diagram Pages: 1 -->
<svg width="379pt" height="230pt"
 viewBox="0.00 0.00 379.00 230.00" xmlns="http://www.w3.org/2000/svg" xmlns:xlink="http://www.w3.org/1999/xlink">
<g id="graph0" class="graph" transform="scale(1 1) rotate(0) translate(4 226)">
<title>models_diagram</title>
<polygon fill="white" stroke="none" points="-4,4 -4,-226 375,-226 375,4 -4,4"/>
<!-- _diagram_info -->
<g id="node1" class="node"><title>_diagram_info</title>
<text text-anchor="start" x="7" y="-207.6" font-family="Times,serif" font-size="13.00">Models diagram</text>
<text text-anchor="start" x="7" y="-193.6" font-family="Times,serif" font-size="13.00">Date: Apr 20 2015 &#45; 11:54</text>
<text text-anchor="start" x="7" y="-179.6" font-family="Times,serif" font-size="13.00">Migration version: 20150410040522</text>
<text text-anchor="start" x="7" y="-165.6" font-family="Times,serif" font-size="13.00">Generated by RailRoady 1.3.0</text>
<text text-anchor="start" x="7" y="-151.6" font-family="Times,serif" font-size="13.00">http://railroady.prestonlee.com</text>
</g>
<!-- Appointment -->
<g id="node2" class="node"><title>Appointment</title>
<ellipse fill="none" stroke="black" cx="172" cy="-90" rx="57.2688" ry="18"/>
<text text-anchor="middle" x="172" y="-86.3" font-family="Times,serif" font-size="14.00">Appointment</text>
</g>
<!-- Role -->
<g id="node4" class="node"><title>Role</title>
<ellipse fill="none" stroke="black" cx="215" cy="-18" rx="26.949" ry="18"/>
<text text-anchor="middle" x="215" y="-14.3" font-family="Times,serif" font-size="14.00">Role</text>
</g>
<!-- Appointment&#45;&gt;Role -->
<g id="edge1" class="edge"><title>Appointment&#45;&gt;Role</title>
<path fill="none" stroke="#51a2b1" d="M186.698,-65.0724C190.917,-58.2053 195.525,-50.7043 199.774,-43.7866"/>
<ellipse fill="none" stroke="#51a2b1" cx="184.503" cy="-68.6466" rx="4.00002" ry="4.00002"/>
<polygon fill="#51a2b1" stroke="#51a2b1" points="200.042,-43.3502 209.111,-37.1848 202.659,-39.0898 205.276,-34.8294 205.276,-34.8294 205.276,-34.8294 202.659,-39.0898 201.442,-32.474 200.042,-43.3502 200.042,-43.3502"/>
</g>
<!-- User -->
<g id="node3" class="node"><title>User</title>
<ellipse fill="none" stroke="black" cx="258" cy="-183" rx="26.949" ry="18"/>
<text text-anchor="middle" x="258" y="-179.3" font-family="Times,serif" font-size="14.00">User</text>
</g>
<!-- User&#45;&gt;Appointment -->
<g id="edge3" class="edge"><title>User&#45;&gt;Appointment</title>
<path fill="none" stroke="#625502" d="M238.377,-161.236C225.368,-147.471 208.258,-129.367 194.668,-114.986"/>
<ellipse fill="none" stroke="#625502" cx="241.435" cy="-164.472" rx="4.00002" ry="4.00002"/>
<polygon fill="#625502" stroke="#625502" points="194.397,-114.7 190.799,-104.341 190.963,-111.066 187.529,-107.432 187.529,-107.432 187.529,-107.432 190.963,-111.066 184.258,-110.523 194.397,-114.7 194.397,-114.7"/>
</g>
<!-- User&#45;&gt;Role -->
<g id="edge2" class="edge"><title>User&#45;&gt;Role</title>
<path fill="none" stroke="#4dc008" d="M254.82,-154.769C251.772,-132.254 246.38,-99.6141 238,-72 235.206,-62.7947 231.278,-53.0481 227.457,-44.4577"/>
<polygon fill="#4dc008" stroke="#4dc008" points="254.853,-155.024 251.668,-165.517 255.492,-159.983 256.131,-164.942 256.131,-164.942 256.131,-164.942 255.492,-159.983 260.594,-164.367 254.853,-155.024 254.853,-155.024"/>
<polygon fill="#4dc008" stroke="#4dc008" points="227.441,-44.4224 227.342,-33.457 225.348,-39.8815 223.255,-35.3406 223.255,-35.3406 223.255,-35.3406 225.348,-39.8815 219.168,-37.2243 227.441,-44.4224 227.441,-44.4224"/>
</g>
<!-- Schedule -->
<g id="node5" class="node"><title>Schedule</title>
<ellipse fill="none" stroke="black" cx="329" cy="-90" rx="42.3456" ry="18"/>
<text text-anchor="middle" x="329" y="-86.3" font-family="Times,serif" font-size="14.00">Schedule</text>
</g>
<!-- User&#45;&gt;Schedule -->
<g id="edge4" class="edge"><title>User&#45;&gt;Schedule</title>
<path fill="none" stroke="#5bf8fc" d="M275.169,-159.995C285.632,-146.585 299.021,-129.423 309.829,-115.571"/>
<ellipse fill="none" stroke="#5bf8fc" cx="272.505" cy="-163.409" rx="4.00002" ry="4.00002"/>
<polygon fill="#5bf8fc" stroke="#5bf8fc" points="310.024,-115.321 319.724,-110.205 313.1,-111.379 316.176,-107.437 316.176,-107.437 316.176,-107.437 313.1,-111.379 312.628,-104.668 310.024,-115.321 310.024,-115.321"/>
</g>
<!-- Ability -->
<g id="node6" class="node"><title>Ability</title>
<polygon fill="none" stroke="black" points="358.25,-201 303.75,-201 303.75,-165 358.25,-165 358.25,-201"/>
<text text-anchor="middle" x="331" y="-179.3" font-family="Times,serif" font-size="14.00">Ability</text>
</g>
</g>
</svg>
